<?xml version="1.0" encoding="UTF-8"?>
<!DOCTYPE svg PUBLIC "-//W3C//DTD SVG 1.1//EN" "http://www.w3.org/Graphics/SVG/1.1/DTD/svg11.dtd">
<svg xmlns="http://www.w3.org/2000/svg" version="1.1" width="444px" height="218px" style="shape-rendering:geometricPrecision; text-rendering:geometricPrecision; image-rendering:optimizeQuality; fill-rule:evenodd; clip-rule:evenodd" xmlns:xlink="http://www.w3.org/1999/xlink">
<g><path style="opacity:1" fill="#2b2e32" d="M -0.5,-0.5 C 1.5,-0.5 3.5,-0.5 5.5,-0.5C 5.5,72.1667 5.5,144.833 5.5,217.5C 3.5,217.5 1.5,217.5 -0.5,217.5C -0.5,144.833 -0.5,72.1667 -0.5,-0.5 Z"/></g>
<g><path style="opacity:1" fill="#1f1f23" d="M 5.5,-0.5 C 151.5,-0.5 297.5,-0.5 443.5,-0.5C 443.5,72.1667 443.5,144.833 443.5,217.5C 297.5,217.5 151.5,217.5 5.5,217.5C 5.5,144.833 5.5,72.1667 5.5,-0.5 Z"/></g>
<g><path style="opacity:1" fill="#a1a8a4" d="M 132.5,4.5 C 135.898,4.17964 139.232,4.51298 142.5,5.5C 141.311,6.42869 139.978,6.76202 138.5,6.5C 137.833,22.5 137.167,22.5 136.5,6.5C 134.517,6.84316 133.183,6.17649 132.5,4.5 Z"/></g>
<g><path style="opacity:1" fill="#a1a8a4" d="M 300.5,4.5 C 303.898,4.17964 307.232,4.51298 310.5,5.5C 309.311,6.42869 307.978,6.76202 306.5,6.5C 305.833,22.5 305.167,22.5 304.5,6.5C 302.517,6.84316 301.183,6.17649 300.5,4.5 Z"/></g>
<g><path style="opacity:1" fill="#7f7572" d="M 153.5,4.5 C 154.043,4.55999 154.376,4.89333 154.5,5.5C 152.257,6.47423 149.924,6.80756 147.5,6.5C 149.5,5.83333 151.5,5.16667 153.5,4.5 Z"/></g>
<g><path style="opacity:1" fill="#7f7572" d="M 213.5,4.5 C 214.043,4.55999 214.376,4.89333 214.5,5.5C 212.257,6.47423 209.924,6.80756 207.5,6.5C 209.5,5.83333 211.5,5.16667 213.5,4.5 Z"/></g>
<g><path style="opacity:1" fill="#7f7572" d="M 321.5,4.5 C 322.043,4.55999 322.376,4.89333 322.5,5.5C 320.257,6.47423 317.924,6.80756 315.5,6.5C 317.5,5.83333 319.5,5.16667 321.5,4.5 Z"/></g>
<g><path style="opacity:1" fill="#959ba0" d="M 156.5,4.5 C 157.833,4.5 159.167,4.5 160.5,4.5C 160.724,6.78672 161.391,8.95339 162.5,11C 162.167,11.5 161.833,12 161.5,12.5C 160.416,11.3349 159.583,10.0016 159,8.5C 158.824,11.8818 158.324,15.2152 157.5,18.5C 156.507,13.8804 156.173,9.21369 156.5,4.5 Z"/></g>
<g><path style="opacity:1" fill="#ab9275" d="M 172.5,4.5 C 173.5,4.5 174.5,4.5 175.5,4.5C 176.374,7.78926 177.041,11.1226 177.5,14.5C 176.857,12.9236 175.857,11.5903 174.5,10.5C 174.657,9.12656 174.49,7.79323 174,6.5C 173.768,7.73747 173.268,8.73747 172.5,9.5C 172.5,7.83333 172.5,6.16667 172.5,4.5 Z"/></g>
<g><path style="opacity:1" fill="#ab9275" d="M 340.5,4.5 C 341.5,4.5 342.5,4.5 343.5,4.5C 344.374,7.78926 345.041,11.1226 345.5,14.5C 344.857,12.9236 343.857,11.5903 342.5,10.5C 342.657,9.12656 342.49,7.79323 342,6.5C 341.768,7.73747 341.268,8.73747 340.5,9.5C 340.5,7.83333 340.5,6.16667 340.5,4.5 Z"/></g>
<g><path style="opacity:1" fill="#a4a39a" d="M 162.5,4.5 C 163.833,4.5 165.167,4.5 166.5,4.5C 166.827,9.21369 166.493,13.8804 165.5,18.5C 164.673,14.5408 164.173,10.5408 164,6.5C 163.667,7.16667 163.333,7.83333 163,8.5C 162.51,7.20677 162.343,5.87344 162.5,4.5 Z"/></g>
<g><path style="opacity:1" fill="#8e9095" d="M 25.5,9.5 C 28.2469,9.18665 30.9135,9.51998 33.5,10.5C 32.1667,10.8333 30.8333,11.1667 29.5,11.5C 27.6672,11.4146 26.3339,10.7479 25.5,9.5 Z"/></g>
<g><path style="opacity:1" fill="#8e9095" d="M 37.5,9.5 C 40.2469,9.18665 42.9135,9.51998 45.5,10.5C 44.1667,10.8333 42.8333,11.1667 41.5,11.5C 39.6672,11.4146 38.3339,10.7479 37.5,9.5 Z"/></g>
<g><path style="opacity:1" fill="#8e9095" d="M 49.5,9.5 C 52.2469,9.18665 54.9135,9.51998 57.5,10.5C 56.1667,10.8333 54.8333,11.1667 53.5,11.5C 51.6672,11.4146 50.3339,10.7479 49.5,9.5 Z"/></g>
<g><path style="opacity:1" fill="#8e9095" d="M 61.5,9.5 C 64.2469,9.18665 66.9135,9.51998 69.5,10.5C 68.1667,10.8333 66.8333,11.1667 65.5,11.5C 63.6672,11.4146 62.3339,10.7479 61.5,9.5 Z"/></g>
<g><path style="opacity:1" fill="#8e9095" d="M 73.5,9.5 C 76.2469,9.18665 78.9135,9.51998 81.5,10.5C 80.1667,10.8333 78.8333,11.1667 77.5,11.5C 75.6672,11.4146 74.3339,10.7479 73.5,9.5 Z"/></g>
<g><path style="opacity:1" fill="#9e9fa0" d="M 98.5,4.5 C 101.38,4.03253 103.713,4.86586 105.5,7C 105.333,7.5 105.167,8 105,8.5C 103.556,6.84464 101.722,6.17798 99.5,6.5C 99.5,7.83333 99.5,9.16667 99.5,10.5C 106.068,10.1918 107.734,12.6918 104.5,18C 102.231,18.7581 100.064,18.5914 98,17.5C 97.2506,16.365 97.4173,15.365 98.5,14.5C 100.6,17.1289 102.6,17.1289 104.5,14.5C 102.573,12.8981 100.406,11.5647 98,10.5C 97.3224,8.40239 97.4891,6.40239 98.5,4.5 Z"/></g>
<g><path style="opacity:1" fill="#9e9fa0" d="M 122.5,4.5 C 125.38,4.03253 127.713,4.86586 129.5,7C 129.333,7.5 129.167,8 129,8.5C 127.556,6.84464 125.722,6.17798 123.5,6.5C 123.5,7.83333 123.5,9.16667 123.5,10.5C 130.068,10.1918 131.734,12.6918 128.5,18C 126.231,18.7581 124.064,18.5914 122,17.5C 121.251,16.365 121.417,15.365 122.5,14.5C 124.6,17.1289 126.6,17.1289 128.5,14.5C 126.573,12.8981 124.406,11.5647 122,10.5C 121.322,8.40239 121.489,6.40239 122.5,4.5 Z"/></g>
<g><path style="opacity:1" fill="#8e9095" d="M 361.5,9.5 C 364.247,9.18665 366.914,9.51998 369.5,10.5C 368.167,10.8333 366.833,11.1667 365.5,11.5C 363.667,11.4146 362.334,10.7479 361.5,9.5 Z"/></g>
<g><path style="opacity:1" fill="#8e9095" d="M 373.5,9.5 C 376.247,9.18665 378.914,9.51998 381.5,10.5C 380.167,10.8333 378.833,11.1667 377.5,11.5C 375.667,11.4146 374.334,10.7479 373.5,9.5 Z"/></g>
<g><path style="opacity:1" fill="#8e9095" d="M 385.5,9.5 C 388.247,9.18665 390.914,9.51998 393.5,10.5C 392.167,10.8333 390.833,11.1667 389.5,11.5C 387.667,11.4146 386.334,10.7479 385.5,9.5 Z"/></g>
<g><path style="opacity:1" fill="#8e9095" d="M 397.5,9.5 C 400.247,9.18665 402.914,9.51998 405.5,10.5C 404.167,10.8333 402.833,11.1667 401.5,11.5C 399.667,11.4146 398.334,10.7479 397.5,9.5 Z"/></g>
<g><path style="opacity:1" fill="#8e9095" d="M 409.5,9.5 C 412.247,9.18665 414.914,9.51998 417.5,10.5C 416.167,10.8333 414.833,11.1667 413.5,11.5C 411.667,11.4146 410.334,10.7479 409.5,9.5 Z"/></g>
<g><path style="opacity:1" fill="#302f40" d="M 174.5,10.5 C 174.719,11.675 174.386,12.675 173.5,13.5C 172.571,12.3112 172.238,10.9778 172.5,9.5C 173.268,8.73747 173.768,7.73747 174,6.5C 174.49,7.79323 174.657,9.12656 174.5,10.5 Z"/></g>
<g><path style="opacity:1" fill="#302f40" d="M 342.5,10.5 C 342.719,11.675 342.386,12.675 341.5,13.5C 340.571,12.3112 340.238,10.9778 340.5,9.5C 341.268,8.73747 341.768,7.73747 342,6.5C 342.49,7.79323 342.657,9.12656 342.5,10.5 Z"/></g>
<g><path style="opacity:1" fill="#8c8787" d="M 25.5,13.5 C 28.5719,13.1826 31.5719,13.5159 34.5,14.5C 33,14.8333 31.5,15.1667 30,15.5C 28.0145,15.4313 26.5145,14.7647 25.5,13.5 Z"/></g>
<g><path style="opacity:1" fill="#8c8787" d="M 37.5,13.5 C 40.5719,13.1826 43.5719,13.5159 46.5,14.5C 45,14.8333 43.5,15.1667 42,15.5C 40.0145,15.4313 38.5145,14.7647 37.5,13.5 Z"/></g>
<g><path style="opacity:1" fill="#8c8787" d="M 49.5,13.5 C 52.5719,13.1826 55.5719,13.5159 58.5,14.5C 57,14.8333 55.5,15.1667 54,15.5C 52.0145,15.4313 50.5145,14.7647 49.5,13.5 Z"/></g>
<g><path style="opacity:1" fill="#8c8787" d="M 61.5,13.5 C 64.5719,13.1826 67.5719,13.5159 70.5,14.5C 69,14.8333 67.5,15.1667 66,15.5C 64.0145,15.4313 62.5145,14.7647 61.5,13.5 Z"/></g>
<g><path style="opacity:1" fill="#8c8787" d="M 73.5,13.5 C 76.5719,13.1826 79.5719,13.5159 82.5,14.5C 81,14.8333 79.5,15.1667 78,15.5C 76.0145,15.4313 74.5145,14.7647 73.5,13.5 Z"/></g>
<g><path style="opacity:1" fill="#939ba5" d="M 172.5,4.5 C 172.5,6.16667 172.5,7.83333 172.5,9.5C 172.238,10.9778 172.571,12.3112 173.5,13.5C 174.386,12.675 174.719,11.675 174.5,10.5C 175.857,11.5903 176.857,12.9236 177.5,14.5C 178.782,15.7082 178.782,17.0416 177.5,18.5C 176.491,15.0131 174.158,13.6797 170.5,14.5C 170.762,15.9778 170.429,17.3112 169.5,18.5C 169.167,17.8333 168.833,17.1667 168.5,16.5C 169.331,12.2084 170.664,8.20841 172.5,4.5 Z"/></g>
<g><path style="opacity:1" fill="#939ba5" d="M 340.5,4.5 C 340.5,6.16667 340.5,7.83333 340.5,9.5C 340.238,10.9778 340.571,12.3112 341.5,13.5C 342.386,12.675 342.719,11.675 342.5,10.5C 343.857,11.5903 344.857,12.9236 345.5,14.5C 346.782,15.7082 346.782,17.0416 345.5,18.5C 344.491,15.0131 342.158,13.6797 338.5,14.5C 338.762,15.9778 338.429,17.3112 337.5,18.5C 337.167,17.8333 336.833,17.1667 336.5,16.5C 337.331,12.2084 338.664,8.20841 340.5,4.5 Z"/></g>
<g><path style="opacity:1" fill="#8c8787" d="M 361.5,13.5 C 364.572,13.1826 367.572,13.5159 370.5,14.5C 369,14.8333 367.5,15.1667 366,15.5C 364.014,15.4313 362.514,14.7647 361.5,13.5 Z"/></g>
<g><path style="opacity:1" fill="#8c8787" d="M 373.5,13.5 C 376.572,13.1826 379.572,13.5159 382.5,14.5C 381,14.8333 379.5,15.1667 378,15.5C 376.014,15.4313 374.514,14.7647 373.5,13.5 Z"/></g>
<g><path style="opacity:1" fill="#8c8787" d="M 385.5,13.5 C 388.572,13.1826 391.572,13.5159 394.5,14.5C 393,14.8333 391.5,15.1667 390,15.5C 388.014,15.4313 386.514,14.7647 385.5,13.5 Z"/></g>
<g><path style="opacity:1" fill="#8c8787" d="M 397.5,13.5 C 400.572,13.1826 403.572,13.5159 406.5,14.5C 405,14.8333 403.5,15.1667 402,15.5C 400.014,15.4313 398.514,14.7647 397.5,13.5 Z"/></g>
<g><path style="opacity:1" fill="#8c8787" d="M 409.5,13.5 C 412.572,13.1826 415.572,13.5159 418.5,14.5C 417,14.8333 415.5,15.1667 414,15.5C 412.014,15.4313 410.514,14.7647 409.5,13.5 Z"/></g>
<g><path style="opacity:1" fill="#a1a8a6" d="M 109.5,4.5 C 112.247,4.18665 114.914,4.51998 117.5,5.5C 116.675,6.38568 115.675,6.71901 114.5,6.5C 114.5,9.83333 114.5,13.1667 114.5,16.5C 115.675,16.281 116.675,16.6143 117.5,17.5C 114.833,18.8333 112.167,18.8333 109.5,17.5C 110.325,16.6143 111.325,16.281 112.5,16.5C 112.5,13.1667 112.5,9.83333 112.5,6.5C 110.821,6.71481 109.821,6.04814 109.5,4.5 Z"/></g>
<g><path style="opacity:1" fill="#aaa9a7" d="M 153.5,4.5 C 151.5,5.16667 149.5,5.83333 147.5,6.5C 147.5,7.83333 147.5,9.16667 147.5,10.5C 155.5,11.1667 155.5,11.8333 147.5,12.5C 147.5,13.8333 147.5,15.1667 147.5,16.5C 149.924,16.1924 152.257,16.5258 154.5,17.5C 151.572,18.4841 148.572,18.8174 145.5,18.5C 145.5,13.8333 145.5,9.16667 145.5,4.5C 148.167,4.5 150.833,4.5 153.5,4.5 Z"/></g>
<g><path style="opacity:1" fill="#a5a3a1" d="M 193.5,4.5 C 199.326,3.32948 201.993,5.66282 201.5,11.5C 201.993,17.3372 199.326,19.6705 193.5,18.5C 193.5,13.8333 193.5,9.16667 193.5,4.5 Z"/></g>
<g><path style="opacity:1" fill="#1f2026" d="M 195.5,6.5 C 196.833,6.5 198.167,6.5 199.5,6.5C 199.5,9.83333 199.5,13.1667 199.5,16.5C 198.167,16.5 196.833,16.5 195.5,16.5C 195.5,13.1667 195.5,9.83333 195.5,6.5 Z"/></g>
<g><path style="opacity:1" fill="#aaa9a7" d="M 213.5,4.5 C 211.5,5.16667 209.5,5.83333 207.5,6.5C 207.5,7.83333 207.5,9.16667 207.5,10.5C 215.5,11.1667 215.5,11.8333 207.5,12.5C 207.5,13.8333 207.5,15.1667 207.5,16.5C 209.924,16.1924 212.257,16.5258 214.5,17.5C 211.572,18.4841 208.572,18.8174 205.5,18.5C 205.5,13.8333 205.5,9.16667 205.5,4.5C 208.167,4.5 210.833,4.5 213.5,4.5 Z"/></g>
<g><path style="opacity:1" fill="#a7a49f" d="M 229.5,4.5 C 231.92,4.29245 234.253,4.62578 236.5,5.5C 237.76,7.35289 237.76,9.18623 236.5,11C 239.167,13.3333 239.167,15.6667 236.5,18C 234.19,18.4966 231.857,18.6633 229.5,18.5C 229.5,13.8333 229.5,9.16667 229.5,4.5 Z"/></g>
<g><path style="opacity:1" fill="#252935" d="M 231.5,12.5 C 233.167,12.5 234.833,12.5 236.5,12.5C 236.5,13.8333 236.5,15.1667 236.5,16.5C 234.833,16.5 233.167,16.5 231.5,16.5C 231.5,15.1667 231.5,13.8333 231.5,12.5 Z"/></g>
<g><path style="opacity:1" fill="#22232c" d="M 231.5,6.5 C 232.833,6.5 234.167,6.5 235.5,6.5C 235.5,7.83333 235.5,9.16667 235.5,10.5C 234.167,10.5 232.833,10.5 231.5,10.5C 231.5,9.16667 231.5,7.83333 231.5,6.5 Z"/></g>
<g><path style="opacity:1" fill="#a1a8a6" d="M 241.5,4.5 C 244.247,4.18665 246.914,4.51998 249.5,5.5C 248.675,6.38568 247.675,6.71901 246.5,6.5C 246.5,9.83333 246.5,13.1667 246.5,16.5C 247.675,16.281 248.675,16.6143 249.5,17.5C 246.833,18.8333 244.167,18.8333 241.5,17.5C 242.325,16.6143 243.325,16.281 244.5,16.5C 244.5,13.1667 244.5,9.83333 244.5,6.5C 242.821,6.71481 241.821,6.04814 241.5,4.5 Z"/></g>
<g><path style="opacity:1" fill="#a7a49f" d="M 253.5,4.5 C 255.92,4.29245 258.253,4.62578 260.5,5.5C 261.76,7.35289 261.76,9.18623 260.5,11C 263.167,13.3333 263.167,15.6667 260.5,18C 258.19,18.4966 255.857,18.6633 253.5,18.5C 253.5,13.8333 253.5,9.16667 253.5,4.5 Z"/></g>
<g><path style="opacity:1" fill="#252935" d="M 255.5,12.5 C 257.167,12.5 258.833,12.5 260.5,12.5C 260.5,13.8333 260.5,15.1667 260.5,16.5C 258.833,16.5 257.167,16.5 255.5,16.5C 255.5,15.1667 255.5,13.8333 255.5,12.5 Z"/></g>
<g><path style="opacity:1" fill="#22232c" d="M 255.5,6.5 C 256.833,6.5 258.167,6.5 259.5,6.5C 259.5,7.83333 259.5,9.16667 259.5,10.5C 258.167,10.5 256.833,10.5 255.5,10.5C 255.5,9.16667 255.5,7.83333 255.5,6.5 Z"/></g>
<g><path style="opacity:1" fill="#aa9c91" d="M 266.5,4.5 C 268.423,8.0293 269.089,12.0293 268.5,16.5C 270.604,16.2011 272.604,16.5344 274.5,17.5C 271.914,18.48 269.247,18.8134 266.5,18.5C 266.5,13.8333 266.5,9.16667 266.5,4.5 Z"/></g>
<g><path style="opacity:1" fill="#a1a8a6" d="M 277.5,4.5 C 280.247,4.18665 282.914,4.51998 285.5,5.5C 284.675,6.38568 283.675,6.71901 282.5,6.5C 282.5,9.83333 282.5,13.1667 282.5,16.5C 283.675,16.281 284.675,16.6143 285.5,17.5C 282.833,18.8333 280.167,18.8333 277.5,17.5C 278.325,16.6143 279.325,16.281 280.5,16.5C 280.5,13.1667 280.5,9.83333 280.5,6.5C 278.821,6.71481 277.821,6.04814 277.5,4.5 Z"/></g>
<g><path style="opacity:1" fill="#9fa1a2" d="M 290.5,4.5 C 296.129,3.48728 298.462,5.82062 297.5,11.5C 297.987,18.1612 295.487,19.8279 290,16.5C 289.238,12.4126 289.404,8.41258 290.5,4.5 Z"/></g>
<g><path style="opacity:1" fill="#212025" d="M 291.5,6.5 C 292.833,6.5 294.167,6.5 295.5,6.5C 295.5,9.83333 295.5,13.1667 295.5,16.5C 294.167,16.5 292.833,16.5 291.5,16.5C 291.5,13.1667 291.5,9.83333 291.5,6.5 Z"/></g>
<g><path style="opacity:1" fill="#aaa9a7" d="M 321.5,4.5 C 319.5,5.16667 317.5,5.83333 315.5,6.5C 315.5,7.83333 315.5,9.16667 315.5,10.5C 323.5,11.1667 323.5,11.8333 315.5,12.5C 315.5,13.8333 315.5,15.1667 315.5,16.5C 317.924,16.1924 320.257,16.5258 322.5,17.5C 319.572,18.4841 316.572,18.8174 313.5,18.5C 313.5,13.8333 313.5,9.16667 313.5,4.5C 316.167,4.5 318.833,4.5 321.5,4.5 Z"/></g>
<g><path style="opacity:1" fill="#a4a19f" d="M 327.5,4.5 C 330.056,4.1322 332.056,4.96553 333.5,7C 333.167,7.5 332.833,8 332.5,8.5C 331.158,6.99512 329.492,6.32846 327.5,6.5C 327.5,9.83333 327.5,13.1667 327.5,16.5C 329.492,16.6715 331.158,16.0049 332.5,14.5C 333.998,17.133 333.165,18.4664 330,18.5C 326.055,17.6699 324.555,15.1699 325.5,11C 325.658,8.5505 326.325,6.38384 327.5,4.5 Z"/></g>
<g><path style="opacity:1" fill="#a4a19d" d="M 160.5,30.5 C 161.675,30.281 162.675,30.6143 163.5,31.5C 161.948,32.7979 160.948,32.4646 160.5,30.5 Z"/></g>
<g><path style="opacity:1" fill="#a4a19d" d="M 256.5,30.5 C 257.675,30.281 258.675,30.6143 259.5,31.5C 257.948,32.7979 256.948,32.4646 256.5,30.5 Z"/></g>
<g><path style="opacity:1" fill="#9da6a5" d="M 173.5,30.5 C 175.975,30.7467 175.975,31.4134 173.5,32.5C 172.537,32.0302 172.537,31.3635 173.5,30.5 Z"/></g>
<g><path style="opacity:1" fill="#9e9fa0" d="M 134.5,34.5 C 136.792,34.2436 138.959,34.5769 141,35.5C 141.688,36.3317 141.521,36.9984 140.5,37.5C 133.831,36.8576 133.831,37.5243 140.5,39.5C 141.76,41.3529 141.76,43.1862 140.5,45C 138.231,45.7581 136.064,45.5914 134,44.5C 133.312,43.6683 133.479,43.0016 134.5,42.5C 136.071,43.3094 137.738,43.6427 139.5,43.5C 139.5,42.5 139.5,41.5 139.5,40.5C 134.074,41.4161 132.407,39.4161 134.5,34.5 Z"/></g>
<g><path style="opacity:1" fill="#a0a3a0" d="M 147.5,31.5 C 149.048,31.8212 149.715,32.8212 149.5,34.5C 156.167,35.1667 156.167,35.8333 149.5,36.5C 149.5,38.8333 149.5,41.1667 149.5,43.5C 150.978,43.238 152.311,43.5713 153.5,44.5C 151.647,45.7596 149.814,45.7596 148,44.5C 147.503,41.854 147.336,39.1873 147.5,36.5C 143.5,35.8333 143.5,35.1667 147.5,34.5C 147.5,33.5 147.5,32.5 147.5,31.5 Z"/></g>
<g><path style="opacity:1" fill="#9e9fa0" d="M 302.5,34.5 C 304.792,34.2436 306.959,34.5769 309,35.5C 309.688,36.3317 309.521,36.9984 308.5,37.5C 301.831,36.8576 301.831,37.5243 308.5,39.5C 309.76,41.3529 309.76,43.1862 308.5,45C 306.231,45.7581 304.064,45.5914 302,44.5C 301.312,43.6683 301.479,43.0016 302.5,42.5C 304.071,43.3094 305.738,43.6427 307.5,43.5C 307.5,42.5 307.5,41.5 307.5,40.5C 302.074,41.4161 300.407,39.4161 302.5,34.5 Z"/></g>
<g><path style="opacity:1" fill="#a4a5a5" d="M 110.5,31.5 C 113.38,31.0325 115.713,31.8659 117.5,34C 117.333,34.5 117.167,35 117,35.5C 115.556,33.8446 113.722,33.178 111.5,33.5C 111.5,36.8333 111.5,40.1667 111.5,43.5C 112.833,43.5 114.167,43.5 115.5,43.5C 115.5,42.1667 115.5,40.8333 115.5,39.5C 114.325,39.719 113.325,39.3857 112.5,38.5C 114.045,37.5481 115.712,37.2148 117.5,37.5C 117.808,39.924 117.474,42.2573 116.5,44.5C 110.957,46.1306 108.623,43.9639 109.5,38C 109.566,35.7446 109.899,33.578 110.5,31.5 Z"/></g>
<g><path style="opacity:1" fill="#9d9898" d="M 157.5,34.5 C 159.5,34.5 161.5,34.5 163.5,34.5C 163.5,37.5 163.5,40.5 163.5,43.5C 164.675,43.281 165.675,43.6143 166.5,44.5C 163.5,45.8333 160.5,45.8333 157.5,44.5C 158.325,43.6143 159.325,43.281 160.5,43.5C 160.5,41.1667 160.5,38.8333 160.5,36.5C 158.821,36.7148 157.821,36.0481 157.5,34.5 Z"/></g>
<g><path style="opacity:1" fill="#9d9898" d="M 253.5,34.5 C 255.5,34.5 257.5,34.5 259.5,34.5C 259.5,37.5 259.5,40.5 259.5,43.5C 260.675,43.281 261.675,43.6143 262.5,44.5C 259.5,45.8333 256.5,45.8333 253.5,44.5C 254.325,43.6143 255.325,43.281 256.5,43.5C 256.5,41.1667 256.5,38.8333 256.5,36.5C 254.821,36.7148 253.821,36.0481 253.5,34.5 Z"/></g>
<g><path style="opacity:1" fill="#9a9e9d" d="M 277.5,34.5 C 279.681,34.9141 282.015,35.0808 284.5,35C 286.421,36.2408 286.754,37.7408 285.5,39.5C 284.614,38.675 284.281,37.675 284.5,36.5C 282.833,36.5 281.167,36.5 279.5,36.5C 279.817,39.5719 279.484,42.5719 278.5,45.5C 277.511,41.8927 277.177,38.226 277.5,34.5 Z"/></g>
<g><path style="opacity:1" fill="#99a1a6" d="M 183.5,34.5 C 185.467,34.2606 187.301,34.5939 189,35.5C 189.824,38.8823 189.657,42.2156 188.5,45.5C 187.516,42.5719 187.183,39.5719 187.5,36.5C 186.5,36.5 185.5,36.5 184.5,36.5C 184.167,35.8333 183.833,35.1667 183.5,34.5 Z"/></g>
<g><path style="opacity:1" fill="#9ea3a5" d="M 211.5,31.5 C 212.805,33.3972 213.471,35.7305 213.5,38.5C 213.167,40.8333 212.833,43.1667 212.5,45.5C 210.657,45.2448 208.657,45.0781 206.5,45C 205.383,41.9269 205.216,38.7603 206,35.5C 207.667,34.1667 209.333,34.1667 211,35.5C 211.49,34.2068 211.657,32.8734 211.5,31.5 Z"/></g>
<g><path style="opacity:1" fill="#212025" d="M 207.5,36.5 C 208.833,36.5 210.167,36.5 211.5,36.5C 211.5,38.8333 211.5,41.1667 211.5,43.5C 210.167,43.5 208.833,43.5 207.5,43.5C 207.5,41.1667 207.5,38.8333 207.5,36.5 Z"/></g>
<g><path style="opacity:1" fill="#b19a80" d="M 183.5,34.5 C 183.833,35.1667 184.167,35.8333 184.5,36.5C 183.834,39.3583 183.167,42.3583 182.5,45.5C 182.167,43.6667 181.833,41.8333 181.5,40C 181.547,37.7047 182.213,35.8714 183.5,34.5 Z"/></g>
<g><path style="opacity:1" fill="#a7a8aa" d="M 123.5,34.5 C 128.168,33.8394 130.168,35.8394 129.5,40.5C 127.5,40.5 125.5,40.5 123.5,40.5C 123.5,41.5 123.5,42.5 123.5,43.5C 125.674,43.0798 127.674,43.0798 129.5,43.5C 127.085,46.1283 124.585,46.1283 122,43.5C 121.094,40.1562 121.594,37.1562 123.5,34.5 Z"/></g>
<g><path style="opacity:1" fill="#28272b" d="M 123.5,36.5 C 124.833,36.5 126.167,36.5 127.5,36.5C 127.5,37.5 127.5,38.5 127.5,39.5C 126.167,39.5 124.833,39.5 123.5,39.5C 123.5,38.5 123.5,37.5 123.5,36.5 Z"/></g>
<g><path style="opacity:1" fill="#a7a8aa" d="M 219.5,34.5 C 224.168,33.8394 226.168,35.8394 225.5,40.5C 223.5,40.5 221.5,40.5 219.5,40.5C 219.5,41.5 219.5,42.5 219.5,43.5C 221.674,43.0798 223.674,43.0798 225.5,43.5C 223.085,46.1283 220.585,46.1283 218,43.5C 217.094,40.1562 217.594,37.1562 219.5,34.5 Z"/></g>
<g><path style="opacity:1" fill="#28272b" d="M 219.5,36.5 C 220.833,36.5 222.167,36.5 223.5,36.5C 223.5,37.5 223.5,38.5 223.5,39.5C 222.167,39.5 220.833,39.5 219.5,39.5C 219.5,38.5 219.5,37.5 219.5,36.5 Z"/></g>
<g><path style="opacity:1" fill="#98969b" d="M 87.5,42.5 C 88.8333,42.5 90.1667,42.5 91.5,42.5C 91.5,43.5 91.5,44.5 91.5,45.5C 90.1667,45.5 88.8333,45.5 87.5,45.5C 87.5,44.5 87.5,43.5 87.5,42.5 Z"/></g>
<g><path style="opacity:1" fill="#a9a199" d="M 75.5,31.5 C 76.8333,31.5 78.1667,31.5 79.5,31.5C 79.5,35.5 79.5,39.5 79.5,43.5C 80.675,43.281 81.675,43.6143 82.5,44.5C 79.5,45.8333 76.5,45.8333 73.5,44.5C 74.6888,43.5713 76.0222,43.238 77.5,43.5C 77.665,40.1501 77.4983,36.8168 77,33.5C 73.1182,36.0876 72.6182,35.421 75.5,31.5 Z"/></g>
<g><path style="opacity:1" fill="#a2a1a2" d="M 170.5,34.5 C 172.591,34.3184 174.591,34.6518 176.5,35.5C 177.833,38.5 177.833,41.5 176.5,44.5C 174.031,46.0066 171.865,45.6732 170,43.5C 169.264,40.408 169.431,37.408 170.5,34.5 Z"/></g>
<g><path style="opacity:1" fill="#212025" d="M 171.5,36.5 C 172.833,36.5 174.167,36.5 175.5,36.5C 175.5,38.8333 175.5,41.1667 175.5,43.5C 174.167,43.5 172.833,43.5 171.5,43.5C 171.5,41.1667 171.5,38.8333 171.5,36.5 Z"/></g>
<g><path style="opacity:1" fill="#aa9c91" d="M 242.5,31.5 C 244.423,35.0293 245.089,39.0293 244.5,43.5C 246.604,43.2011 248.604,43.5344 250.5,44.5C 247.914,45.48 245.247,45.8134 242.5,45.5C 242.5,40.8333 242.5,36.1667 242.5,31.5 Z"/></g>
<g><path style="opacity:1" fill="#a4a29e" d="M 265.5,31.5 C 267.045,32.2297 267.878,33.563 268,35.5C 269.667,34.1667 271.333,34.1667 273,35.5C 273.784,38.7603 273.617,41.9269 272.5,45C 270.343,45.0781 268.343,45.2448 266.5,45.5C 265.507,40.8804 265.173,36.2137 265.5,31.5 Z"/></g>
<g><path style="opacity:1" fill="#222025" d="M 267.5,36.5 C 268.833,36.5 270.167,36.5 271.5,36.5C 271.5,38.8333 271.5,41.1667 271.5,43.5C 270.167,43.5 268.833,43.5 267.5,43.5C 267.5,41.1667 267.5,38.8333 267.5,36.5 Z"/></g>
<g><path style="opacity:1" fill="#a2a1a2" d="M 290.5,34.5 C 292.591,34.3184 294.591,34.6518 296.5,35.5C 297.833,38.5 297.833,41.5 296.5,44.5C 294.031,46.0066 291.865,45.6732 290,43.5C 289.264,40.408 289.431,37.408 290.5,34.5 Z"/></g>
<g><path style="opacity:1" fill="#212025" d="M 291.5,36.5 C 292.833,36.5 294.167,36.5 295.5,36.5C 295.5,38.8333 295.5,41.1667 295.5,43.5C 294.167,43.5 292.833,43.5 291.5,43.5C 291.5,41.1667 291.5,38.8333 291.5,36.5 Z"/></g>
<g><path style="opacity:1" fill="#a4a19d" d="M 160.5,57.5 C 161.675,57.281 162.675,57.6143 163.5,58.5C 161.948,59.7979 160.948,59.4646 160.5,57.5 Z"/></g>
<g><path style="opacity:1" fill="#a4a19d" d="M 304.5,57.5 C 305.675,57.281 306.675,57.6143 307.5,58.5C 305.948,59.7979 304.948,59.4646 304.5,57.5 Z"/></g>
<g><path style="opacity:1" fill="#a3a1a0" d="M 74.5,58.5 C 80.3252,57.5058 82.4919,59.8392 81,65.5C 79.5,67 78,68.5 76.5,70C 78.5767,70.1922 80.5767,70.6922 82.5,71.5C 73.7383,73.7228 72.2383,72.0561 78,66.5C 79.128,64.6547 79.628,62.6547 79.5,60.5C 77.5082,60.3285 75.8415,60.9951 74.5,62.5C 73.3744,61.1916 73.3744,59.8583 74.5,58.5 Z"/></g>
<g><path style="opacity:1" fill="#9da6a5" d="M 173.5,57.5 C 175.975,57.7467 175.975,58.4134 173.5,59.5C 172.537,59.0302 172.537,58.3635 173.5,57.5 Z"/></g>
<g><path style="opacity:1" fill="#9e9fa0" d="M 134.5,61.5 C 136.792,61.2436 138.959,61.5769 141,62.5C 141.688,63.3317 141.521,63.9984 140.5,64.5C 133.831,63.8576 133.831,64.5243 140.5,66.5C 141.76,68.3529 141.76,70.1862 140.5,72C 138.231,72.7581 136.064,72.5914 134,71.5C 133.312,70.6683 133.479,70.0016 134.5,69.5C 136.071,70.3094 137.738,70.6427 139.5,70.5C 139.5,69.5 139.5,68.5 139.5,67.5C 134.074,68.4161 132.407,66.4161 134.5,61.5 Z"/></g>
<g><path style="opacity:1" fill="#a0a3a0" d="M 147.5,58.5 C 149.048,58.8212 149.715,59.8212 149.5,61.5C 156.167,62.1667 156.167,62.8333 149.5,63.5C 149.5,65.8333 149.5,68.1667 149.5,70.5C 150.978,70.238 152.311,70.5713 153.5,71.5C 151.647,72.7596 149.814,72.7596 148,71.5C 147.503,68.854 147.336,66.1873 147.5,63.5C 143.5,62.8333 143.5,62.1667 147.5,61.5C 147.5,60.5 147.5,59.5 147.5,58.5 Z"/></g>
<g><path style="opacity:1" fill="#9e9fa0" d="M 254.5,61.5 C 256.792,61.2436 258.959,61.5769 261,62.5C 261.688,63.3317 261.521,63.9984 260.5,64.5C 253.831,63.8576 253.831,64.5243 260.5,66.5C 261.76,68.3529 261.76,70.1862 260.5,72C 258.231,72.7581 256.064,72.5914 254,71.5C 253.312,70.6683 253.479,70.0016 254.5,69.5C 256.071,70.3094 257.738,70.6427 259.5,70.5C 259.5,69.5 259.5,68.5 259.5,67.5C 254.074,68.4161 252.407,66.4161 254.5,61.5 Z"/></g>
<g><path style="opacity:1" fill="#9e9fa0" d="M 326.5,61.5 C 328.792,61.2436 330.959,61.5769 333,62.5C 333.688,63.3317 333.521,63.9984 332.5,64.5C 325.831,63.8576 325.831,64.5243 332.5,66.5C 333.76,68.3529 333.76,70.1862 332.5,72C 330.231,72.7581 328.064,72.5914 326,71.5C 325.312,70.6683 325.479,70.0016 326.5,69.5C 328.071,70.3094 329.738,70.6427 331.5,70.5C 331.5,69.5 331.5,68.5 331.5,67.5C 326.074,68.4161 324.407,66.4161 326.5,61.5 Z"/></g>
<g><path style="opacity:1" fill="#a4a5a5" d="M 110.5,58.5 C 113.38,58.0325 115.713,58.8659 117.5,61C 117.333,61.5 117.167,62 117,62.5C 115.556,60.8446 113.722,60.178 111.5,60.5C 111.5,63.8333 111.5,67.1667 111.5,70.5C 112.833,70.5 114.167,70.5 115.5,70.5C 115.5,69.1667 115.5,67.8333 115.5,66.5C 114.325,66.719 113.325,66.3857 112.5,65.5C 114.045,64.5481 115.712,64.2148 117.5,64.5C 117.808,66.924 117.474,69.2573 116.5,71.5C 110.957,73.1306 108.623,70.9639 109.5,65C 109.566,62.7446 109.899,60.578 110.5,58.5 Z"/></g>
<g><path style="opacity:1" fill="#9d9898" d="M 157.5,61.5 C 159.5,61.5 161.5,61.5 163.5,61.5C 163.5,64.5 163.5,67.5 163.5,70.5C 164.675,70.281 165.675,70.6143 166.5,71.5C 163.5,72.8333 160.5,72.8333 157.5,71.5C 158.325,70.6143 159.325,70.281 160.5,70.5C 160.5,68.1667 160.5,65.8333 160.5,63.5C 158.821,63.7148 157.821,63.0481 157.5,61.5 Z"/></g>
<g><path style="opacity:1" fill="#9d9898" d="M 301.5,61.5 C 303.5,61.5 305.5,61.5 307.5,61.5C 307.5,64.5 307.5,67.5 307.5,70.5C 308.675,70.281 309.675,70.6143 310.5,71.5C 307.5,72.8333 304.5,72.8333 301.5,71.5C 302.325,70.6143 303.325,70.281 304.5,70.5C 304.5,68.1667 304.5,65.8333 304.5,63.5C 302.821,63.7148 301.821,63.0481 301.5,61.5 Z"/></g>
<g><path style="opacity:1" fill="#9a9e9d" d="M 289.5,61.5 C 291.681,61.9141 294.015,62.0808 296.5,62C 298.421,63.2408 298.754,64.7408 297.5,66.5C 296.614,65.675 296.281,64.675 296.5,63.5C 294.833,63.5 293.167,63.5 291.5,63.5C 291.817,66.5719 291.484,69.5719 290.5,72.5C 289.511,68.8927 289.177,65.226 289.5,61.5 Z"/></g>
<g><path style="opacity:1" fill="#99a1a6" d="M 183.5,61.5 C 185.467,61.2606 187.301,61.5939 189,62.5C 189.824,65.8823 189.657,69.2156 188.5,72.5C 187.516,69.5719 187.183,66.5719 187.5,63.5C 186.5,63.5 185.5,63.5 184.5,63.5C 184.167,62.8333 183.833,62.1667 183.5,61.5 Z"/></g>
<g><path style="opacity:1" fill="#9ea3a5" d="M 211.5,58.5 C 212.805,60.3972 213.471,62.7305 213.5,65.5C 213.167,67.8333 212.833,70.1667 212.5,72.5C 210.657,72.2448 208.657,72.0781 206.5,72C 205.383,68.9269 205.216,65.7603 206,62.5C 207.667,61.1667 209.333,61.1667 211,62.5C 211.49,61.2068 211.657,59.8734 211.5,58.5 Z"/></g>
<g><path style="opacity:1" fill="#212025" d="M 207.5,63.5 C 208.833,63.5 210.167,63.5 211.5,63.5C 211.5,65.8333 211.5,68.1667 211.5,70.5C 210.167,70.5 208.833,70.5 207.5,70.5C 207.5,68.1667 207.5,65.8333 207.5,63.5 Z"/></g>
<g><path style="opacity:1" fill="#b19a80" d="M 183.5,61.5 C 183.833,62.1667 184.167,62.8333 184.5,63.5C 183.834,66.3583 183.167,69.3583 182.5,72.5C 182.167,70.6667 181.833,68.8333 181.5,67C 181.547,64.7047 182.213,62.8714 183.5,61.5 Z"/></g>
<g><path style="opacity:1" fill="#a7a8aa" d="M 123.5,61.5 C 128.168,60.8394 130.168,62.8394 129.5,67.5C 127.5,67.5 125.5,67.5 123.5,67.5C 123.5,68.5 123.5,69.5 123.5,70.5C 125.674,70.0798 127.674,70.0798 129.5,70.5C 127.085,73.1283 124.585,73.1283 122,70.5C 121.094,67.1562 121.594,64.1562 123.5,61.5 Z"/></g>
<g><path style="opacity:1" fill="#28272b" d="M 123.5,63.5 C 124.833,63.5 126.167,63.5 127.5,63.5C 127.5,64.5 127.5,65.5 127.5,66.5C 126.167,66.5 124.833,66.5 123.5,66.5C 123.5,65.5 123.5,64.5 123.5,63.5 Z"/></g>
<g><path style="opacity:1" fill="#a7a8aa" d="M 219.5,61.5 C 224.168,60.8394 226.168,62.8394 225.5,67.5C 223.5,67.5 221.5,67.5 219.5,67.5C 219.5,68.5 219.5,69.5 219.5,70.5C 221.674,70.0798 223.674,70.0798 225.5,70.5C 223.085,73.1283 220.585,73.1283 218,70.5C 217.094,67.1562 217.594,64.1562 219.5,61.5 Z"/></g>
<g><path style="opacity:1" fill="#28272b" d="M 219.5,63.5 C 220.833,63.5 222.167,63.5 223.5,63.5C 223.5,64.5 223.5,65.5 223.5,66.5C 222.167,66.5 220.833,66.5 219.5,66.5C 219.5,65.5 219.5,64.5 219.5,63.5 Z"/></g>
<g><path style="opacity:1" fill="#9aa2ab" d="M 278.5,61.5 C 280.591,61.3184 282.591,61.6518 284.5,62.5C 285.833,65.8333 285.833,69.1667 284.5,72.5C 282.264,72.5835 279.93,72.2502 277.5,71.5C 276.167,69.8333 276.167,68.1667 277.5,66.5C 279.535,65.9588 281.535,65.2922 283.5,64.5C 281.865,63.3192 280.198,63.3192 278.5,64.5C 277.438,63.5754 277.438,62.5754 278.5,61.5 Z"/></g>
<g><path style="opacity:1" fill="#372f31" d="M 279.5,66.5 C 280.833,66.5 282.167,66.5 283.5,66.5C 283.5,67.8333 283.5,69.1667 283.5,70.5C 281.833,70.5 280.167,70.5 278.5,70.5C 278.433,69.0413 278.766,67.7079 279.5,66.5 Z"/></g>
<g><path style="opacity:1" fill="#98969b" d="M 87.5,69.5 C 88.8333,69.5 90.1667,69.5 91.5,69.5C 91.5,70.5 91.5,71.5 91.5,72.5C 90.1667,72.5 88.8333,72.5 87.5,72.5C 87.5,71.5 87.5,70.5 87.5,69.5 Z"/></g>
<g><path style="opacity:1" fill="#a2a1a2" d="M 170.5,61.5 C 172.591,61.3184 174.591,61.6518 176.5,62.5C 177.833,65.5 177.833,68.5 176.5,71.5C 174.031,73.0066 171.865,72.6732 170,70.5C 169.264,67.408 169.431,64.408 170.5,61.5 Z"/></g>
<g><path style="opacity:1" fill="#212025" d="M 171.5,63.5 C 172.833,63.5 174.167,63.5 175.5,63.5C 175.5,65.8333 175.5,68.1667 175.5,70.5C 174.167,70.5 172.833,70.5 171.5,70.5C 171.5,68.1667 171.5,65.8333 171.5,63.5 Z"/></g>
<g><path style="opacity:1" fill="#a0a0a1" d="M 241.5,58.5 C 243.423,62.0293 244.089,66.0293 243.5,70.5C 244.833,70.5 246.167,70.5 247.5,70.5C 247.176,66.4454 247.509,62.4454 248.5,58.5C 249.833,62.8333 249.833,67.1667 248.5,71.5C 246.031,73.0066 243.865,72.6732 242,70.5C 241.501,66.5138 241.334,62.5138 241.5,58.5 Z"/></g>
<g><path style="opacity:1" fill="#a0a1a1" d="M 265.5,61.5 C 267.388,63.9878 268.055,66.9878 267.5,70.5C 268.833,70.5 270.167,70.5 271.5,70.5C 271.183,67.4281 271.516,64.4281 272.5,61.5C 273.833,64.8333 273.833,68.1667 272.5,71.5C 270.031,73.0066 267.865,72.6732 266,70.5C 265.502,67.5184 265.335,64.5184 265.5,61.5 Z"/></g>
<g><path style="opacity:1" fill="#a2a1a2" d="M 314.5,61.5 C 316.591,61.3184 318.591,61.6518 320.5,62.5C 321.833,65.5 321.833,68.5 320.5,71.5C 318.031,73.0066 315.865,72.6732 314,70.5C 313.264,67.408 313.431,64.408 314.5,61.5 Z"/></g>
<g><path style="opacity:1" fill="#212025" d="M 315.5,63.5 C 316.833,63.5 318.167,63.5 319.5,63.5C 319.5,65.8333 319.5,68.1667 319.5,70.5C 318.167,70.5 316.833,70.5 315.5,70.5C 315.5,68.1667 315.5,65.8333 315.5,63.5 Z"/></g>
<g><path style="opacity:1" fill="#a4a19d" d="M 340.5,84.5 C 341.675,84.281 342.675,84.6143 343.5,85.5C 341.948,86.7979 340.948,86.4646 340.5,84.5 Z"/></g>
<g><path style="opacity:1" fill="#a9a49b" d="M 109.5,85.5 C 111.857,85.3367 114.19,85.5034 116.5,86C 119.715,91.3247 118.048,93.8247 111.5,93.5C 111.799,95.604 111.466,97.604 110.5,99.5C 109.507,94.8804 109.173,90.2137 109.5,85.5 Z"/></g>
<g><path style="opacity:1" fill="#9da6a5" d="M 137.5,84.5 C 139.975,84.7467 139.975,85.4134 137.5,86.5C 136.537,86.0302 136.537,85.3635 137.5,84.5 Z"/></g>
<g><path style="opacity:1" fill="#969fa8" d="M 299.5,85.5 C 301.5,85.5 303.5,85.5 305.5,85.5C 305.5,89.5 305.5,93.5 305.5,97.5C 307.288,97.2148 308.955,97.5481 310.5,98.5C 308.516,99.7059 306.516,99.7059 304.5,98.5C 303.511,94.8927 303.177,91.226 303.5,87.5C 301.517,87.8432 300.183,87.1765 299.5,85.5 Z"/></g>
<g><path style="opacity:1" fill="#21232d" d="M 111.5,87.5 C 113.167,87.5 114.833,87.5 116.5,87.5C 116.5,88.8333 116.5,90.1667 116.5,91.5C 114.833,91.5 113.167,91.5 111.5,91.5C 111.5,90.1667 111.5,88.8333 111.5,87.5 Z"/></g>
<g><path style="opacity:1" fill="#a2a29f" d="M 73.5,85.5 C 76.2469,85.1866 78.9135,85.52 81.5,86.5C 80.6872,87.8139 79.6872,88.9805 78.5,90C 81.3798,92.2531 82.0465,95.0865 80.5,98.5C 77.517,100.206 75.1836,99.7065 73.5,97C 73.8333,96.5 74.1667,96 74.5,95.5C 75.8415,97.0049 77.5082,97.6715 79.5,97.5C 79.5,95.8333 79.5,94.1667 79.5,92.5C 74.6101,92.3608 74.2767,90.8608 78.5,88C 76.256,87.9504 74.5893,87.1171 73.5,85.5 Z"/></g>
<g><path style="opacity:1" fill="#9e9fa0" d="M 146.5,88.5 C 148.792,88.2436 150.959,88.5769 153,89.5C 153.688,90.3317 153.521,90.9984 152.5,91.5C 145.831,90.8576 145.831,91.5243 152.5,93.5C 153.76,95.3529 153.76,97.1862 152.5,99C 150.231,99.7581 148.064,99.5914 146,98.5C 145.312,97.6683 145.479,97.0016 146.5,96.5C 148.071,97.3094 149.738,97.6427 151.5,97.5C 151.5,96.5 151.5,95.5 151.5,94.5C 146.074,95.4161 144.407,93.4161 146.5,88.5 Z"/></g>
<g><path style="opacity:1" fill="#a0a3a0" d="M 159.5,85.5 C 161.048,85.8212 161.715,86.8212 161.5,88.5C 168.167,89.1667 168.167,89.8333 161.5,90.5C 161.5,92.8333 161.5,95.1667 161.5,97.5C 162.978,97.238 164.311,97.5713 165.5,98.5C 163.647,99.7596 161.814,99.7596 160,98.5C 159.503,95.854 159.336,93.1873 159.5,90.5C 155.5,89.8333 155.5,89.1667 159.5,88.5C 159.5,87.5 159.5,86.5 159.5,85.5 Z"/></g>
<g><path style="opacity:1" fill="#9e9fa0" d="M 206.5,88.5 C 208.792,88.2436 210.959,88.5769 213,89.5C 213.688,90.3317 213.521,90.9984 212.5,91.5C 205.831,90.8576 205.831,91.5243 212.5,93.5C 213.76,95.3529 213.76,97.1862 212.5,99C 210.231,99.7581 208.064,99.5914 206,98.5C 205.312,97.6683 205.479,97.0016 206.5,96.5C 208.071,97.3094 209.738,97.6427 211.5,97.5C 211.5,96.5 211.5,95.5 211.5,94.5C 206.074,95.4161 204.407,93.4161 206.5,88.5 Z"/></g>
<g><path style="opacity:1" fill="#9e9fa0" d="M 386.5,88.5 C 388.792,88.2436 390.959,88.5769 393,89.5C 393.688,90.3317 393.521,90.9984 392.5,91.5C 385.831,90.8576 385.831,91.5243 392.5,93.5C 393.76,95.3529 393.76,97.1862 392.5,99C 390.231,99.7581 388.064,99.5914 386,98.5C 385.312,97.6683 385.479,97.0016 386.5,96.5C 388.071,97.3094 389.738,97.6427 391.5,97.5C 391.5,96.5 391.5,95.5 391.5,94.5C 386.074,95.4161 384.407,93.4161 386.5,88.5 Z"/></g>
<g><path style="opacity:1" fill="#9d9898" d="M 337.5,88.5 C 339.5,88.5 341.5,88.5 343.5,88.5C 343.5,91.5 343.5,94.5 343.5,97.5C 344.675,97.281 345.675,97.6143 346.5,98.5C 343.5,99.8333 340.5,99.8333 337.5,98.5C 338.325,97.6143 339.325,97.281 340.5,97.5C 340.5,95.1667 340.5,92.8333 340.5,90.5C 338.821,90.7148 337.821,90.0481 337.5,88.5 Z"/></g>
<g><path style="opacity:1" fill="#9a9e9d" d="M 121.5,88.5 C 123.681,88.9141 126.015,89.0808 128.5,89C 130.421,90.2408 130.754,91.7408 129.5,93.5C 128.614,92.675 128.281,91.675 128.5,90.5C 126.833,90.5 125.167,90.5 123.5,90.5C 123.817,93.5719 123.484,96.5719 122.5,99.5C 121.511,95.8927 121.177,92.226 121.5,88.5 Z"/></g>
<g><path style="opacity:1" fill="#9f9e97" d="M 186.5,89.5 C 186.146,102.769 185.146,102.769 183.5,89.5C 181.687,102.574 180.687,102.24 180.5,88.5C 182.621,88.3253 184.621,88.6586 186.5,89.5 Z"/></g>
<g><path style="opacity:1" fill="#97a2a3" d="M 186.5,89.5 C 187.542,88.2089 188.708,88.2089 190,89.5C 190.824,92.8823 190.657,96.2156 189.5,99.5C 189.104,95.7366 188.104,92.4032 186.5,89.5 Z"/></g>
<g><path style="opacity:1" fill="#ada291" d="M 231.5,101.5 C 232.746,98.7067 232.413,96.04 230.5,93.5C 229.566,91.7615 229.566,90.0948 230.5,88.5C 231.937,91.0409 233.103,93.7076 234,96.5C 234.803,93.7558 235.803,91.0891 237,88.5C 236.823,93.8658 235.323,98.8658 232.5,103.5C 231.702,103.043 231.369,102.376 231.5,101.5 Z"/></g>
<g><path style="opacity:1" fill="#2f4870" d="M 277.5,88.5 C 277.963,91.221 278.629,93.8877 279.5,96.5C 276.948,94.1996 276.282,91.533 277.5,88.5 Z"/></g>
<g><path style="opacity:1" fill="#99a1a6" d="M 363.5,88.5 C 365.467,88.2606 367.301,88.5939 369,89.5C 369.824,92.8823 369.657,96.2156 368.5,99.5C 367.516,96.5719 367.183,93.5719 367.5,90.5C 366.5,90.5 365.5,90.5 364.5,90.5C 364.167,89.8333 363.833,89.1667 363.5,88.5 Z"/></g>
<g><path style="opacity:1" fill="#b19a80" d="M 363.5,88.5 C 363.833,89.1667 364.167,89.8333 364.5,90.5C 363.834,93.3583 363.167,96.3583 362.5,99.5C 362.167,97.6667 361.833,95.8333 361.5,94C 361.547,91.7047 362.213,89.8714 363.5,88.5 Z"/></g>
<g><path style="opacity:1" fill="#a7a8aa" d="M 135.5,88.5 C 140.168,87.8394 142.168,89.8394 141.5,94.5C 139.5,94.5 137.5,94.5 135.5,94.5C 135.5,95.5 135.5,96.5 135.5,97.5C 137.674,97.0798 139.674,97.0798 141.5,97.5C 139.085,100.128 136.585,100.128 134,97.5C 133.094,94.1562 133.594,91.1562 135.5,88.5 Z"/></g>
<g><path style="opacity:1" fill="#28272b" d="M 135.5,90.5 C 136.833,90.5 138.167,90.5 139.5,90.5C 139.5,91.5 139.5,92.5 139.5,93.5C 138.167,93.5 136.833,93.5 135.5,93.5C 135.5,92.5 135.5,91.5 135.5,90.5 Z"/></g>
<g><path style="opacity:1" fill="#a7a8aa" d="M 267.5,88.5 C 272.168,87.8394 274.168,89.8394 273.5,94.5C 271.5,94.5 269.5,94.5 267.5,94.5C 267.5,95.5 267.5,96.5 267.5,97.5C 269.674,97.0798 271.674,97.0798 273.5,97.5C 271.085,100.128 268.585,100.128 266,97.5C 265.094,94.1562 265.594,91.1562 267.5,88.5 Z"/></g>
<g><path style="opacity:1" fill="#28272b" d="M 267.5,90.5 C 268.833,90.5 270.167,90.5 271.5,90.5C 271.5,91.5 271.5,92.5 271.5,93.5C 270.167,93.5 268.833,93.5 267.5,93.5C 267.5,92.5 267.5,91.5 267.5,90.5 Z"/></g>
<g><path style="opacity:1" fill="#a7a8aa" d="M 375.5,88.5 C 380.168,87.8394 382.168,89.8394 381.5,94.5C 379.5,94.5 377.5,94.5 375.5,94.5C 375.5,95.5 375.5,96.5 375.5,97.5C 377.674,97.0798 379.674,97.0798 381.5,97.5C 379.085,100.128 376.585,100.128 374,97.5C 373.094,94.1562 373.594,91.1562 375.5,88.5 Z"/></g>
<g><path style="opacity:1" fill="#28272b" d="M 375.5,90.5 C 376.833,90.5 378.167,90.5 379.5,90.5C 379.5,91.5 379.5,92.5 379.5,93.5C 378.167,93.5 376.833,93.5 375.5,93.5C 375.5,92.5 375.5,91.5 375.5,90.5 Z"/></g>
<g><path style="opacity:1" fill="#9aa2ab" d="M 170.5,88.5 C 172.591,88.3184 174.591,88.6518 176.5,89.5C 177.833,92.8333 177.833,96.1667 176.5,99.5C 174.264,99.5835 171.93,99.2502 169.5,98.5C 168.167,96.8333 168.167,95.1667 169.5,93.5C 171.535,92.9588 173.535,92.2922 175.5,91.5C 173.865,90.3192 172.198,90.3192 170.5,91.5C 169.438,90.5754 169.438,89.5754 170.5,88.5 Z"/></g>
<g><path style="opacity:1" fill="#372f31" d="M 171.5,93.5 C 172.833,93.5 174.167,93.5 175.5,93.5C 175.5,94.8333 175.5,96.1667 175.5,97.5C 173.833,97.5 172.167,97.5 170.5,97.5C 170.433,96.0413 170.766,94.7079 171.5,93.5 Z"/></g>
<g><path style="opacity:1" fill="#a59e93" d="M 277.5,88.5 C 279.364,89.9784 280.697,91.9784 281.5,94.5C 283.121,92.8474 284.288,90.8474 285,88.5C 284.837,92.1626 284.337,95.8293 283.5,99.5C 281.381,99.5323 280.048,98.5323 279.5,96.5C 278.629,93.8877 277.963,91.221 277.5,88.5 Z"/></g>
<g><path style="opacity:1" fill="#98969b" d="M 87.5,96.5 C 88.8333,96.5 90.1667,96.5 91.5,96.5C 91.5,97.5 91.5,98.5 91.5,99.5C 90.1667,99.5 88.8333,99.5 87.5,99.5C 87.5,98.5 87.5,97.5 87.5,96.5 Z"/></g>
<g><path style="opacity:1" fill="#a2a1a2" d="M 194.5,88.5 C 196.591,88.3184 198.591,88.6518 200.5,89.5C 201.833,92.5 201.833,95.5 200.5,98.5C 198.031,100.007 195.865,99.6732 194,97.5C 193.264,94.408 193.431,91.408 194.5,88.5 Z"/></g>
<g><path style="opacity:1" fill="#212025" d="M 195.5,90.5 C 196.833,90.5 198.167,90.5 199.5,90.5C 199.5,92.8333 199.5,95.1667 199.5,97.5C 198.167,97.5 196.833,97.5 195.5,97.5C 195.5,95.1667 195.5,92.8333 195.5,90.5 Z"/></g>
<g><path style="opacity:1" fill="#a5a3a1" d="M 253.5,85.5 C 259.326,84.3295 261.993,86.6628 261.5,92.5C 261.993,98.3372 259.326,100.671 253.5,99.5C 253.5,94.8333 253.5,90.1667 253.5,85.5 Z"/></g>
<g><path style="opacity:1" fill="#1f2026" d="M 255.5,87.5 C 256.833,87.5 258.167,87.5 259.5,87.5C 259.5,90.8333 259.5,94.1667 259.5,97.5C 258.167,97.5 256.833,97.5 255.5,97.5C 255.5,94.1667 255.5,90.8333 255.5,87.5 Z"/></g>
<g><path style="opacity:1" fill="#a2a1a2" d="M 290.5,88.5 C 292.591,88.3184 294.591,88.6518 296.5,89.5C 297.833,92.5 297.833,95.5 296.5,98.5C 294.031,100.007 291.865,99.6732 290,97.5C 289.264,94.408 289.431,91.408 290.5,88.5 Z"/></g>
<g><path style="opacity:1" fill="#212025" d="M 291.5,90.5 C 292.833,90.5 294.167,90.5 295.5,90.5C 295.5,92.8333 295.5,95.1667 295.5,97.5C 294.167,97.5 292.833,97.5 291.5,97.5C 291.5,95.1667 291.5,92.8333 291.5,90.5 Z"/></g>
<g><path style="opacity:1" fill="#a0a1a1" d="M 313.5,88.5 C 315.388,90.9878 316.055,93.9878 315.5,97.5C 316.833,97.5 318.167,97.5 319.5,97.5C 319.183,94.4281 319.516,91.4281 320.5,88.5C 321.833,91.8333 321.833,95.1667 320.5,98.5C 318.031,100.007 315.865,99.6732 314,97.5C 313.502,94.5184 313.335,91.5184 313.5,88.5 Z"/></g>
<g><path style="opacity:1" fill="#a39f9b" d="M 327.5,88.5 C 329.199,88.3398 330.866,88.5065 332.5,89C 333.517,90.0495 333.684,91.2161 333,92.5C 331.556,90.8446 329.722,90.178 327.5,90.5C 327.5,92.8333 327.5,95.1667 327.5,97.5C 329.492,97.6715 331.158,97.0049 332.5,95.5C 333.998,98.133 333.165,99.4664 330,99.5C 326.447,99.107 324.947,97.107 325.5,93.5C 325.724,91.5453 326.391,89.8787 327.5,88.5 Z"/></g>
<g><path style="opacity:1" fill="#a2a1a2" d="M 350.5,88.5 C 352.591,88.3184 354.591,88.6518 356.5,89.5C 357.833,92.5 357.833,95.5 356.5,98.5C 354.031,100.007 351.865,99.6732 350,97.5C 349.264,94.408 349.431,91.408 350.5,88.5 Z"/></g>
<g><path style="opacity:1" fill="#212025" d="M 351.5,90.5 C 352.833,90.5 354.167,90.5 355.5,90.5C 355.5,92.8333 355.5,95.1667 355.5,97.5C 354.167,97.5 352.833,97.5 351.5,97.5C 351.5,95.1667 351.5,92.8333 351.5,90.5 Z"/></g>
<g><path style="opacity:1" fill="#2b4371" d="M 230.5,93.5 C 232.413,96.04 232.746,98.7067 231.5,101.5C 231.167,98.8333 230.833,96.1667 230.5,93.5 Z"/></g>
<g><path style="opacity:1" fill="#94a5ad" d="M 161.5,112.5 C 160.233,113.087 159.233,113.087 158.5,112.5C 159.614,111.224 160.614,111.224 161.5,112.5 Z"/></g>
<g><path style="opacity:1" fill="#a4a19d" d="M 268.5,111.5 C 269.675,111.281 270.675,111.614 271.5,112.5C 269.948,113.798 268.948,113.465 268.5,111.5 Z"/></g>
<g><path style="opacity:1" fill="#a4a19d" d="M 292.5,111.5 C 293.675,111.281 294.675,111.614 295.5,112.5C 293.948,113.798 292.948,113.465 292.5,111.5 Z"/></g>
<g><path style="opacity:1" fill="#a4a19d" d="M 340.5,111.5 C 341.675,111.281 342.675,111.614 343.5,112.5C 341.948,113.798 340.948,113.465 340.5,111.5 Z"/></g>
<g><path style="opacity:1" fill="#acb0a3" d="M 161.5,112.5 C 162.767,111.913 163.767,111.913 164.5,112.5C 163.386,113.776 162.386,113.776 161.5,112.5 Z"/></g>
<g><path style="opacity:1" fill="#969fa8" d="M 251.5,112.5 C 253.5,112.5 255.5,112.5 257.5,112.5C 257.5,116.5 257.5,120.5 257.5,124.5C 259.288,124.215 260.955,124.548 262.5,125.5C 260.516,126.706 258.516,126.706 256.5,125.5C 255.511,121.893 255.177,118.226 255.5,114.5C 253.517,114.843 252.183,114.176 251.5,112.5 Z"/></g>
<g><path style="opacity:1" fill="#9e9fa0" d="M 134.5,115.5 C 136.792,115.244 138.959,115.577 141,116.5C 141.688,117.332 141.521,117.998 140.5,118.5C 133.831,117.858 133.831,118.524 140.5,120.5C 141.76,122.353 141.76,124.186 140.5,126C 138.231,126.758 136.064,126.591 134,125.5C 133.312,124.668 133.479,124.002 134.5,123.5C 136.071,124.309 137.738,124.643 139.5,124.5C 139.5,123.5 139.5,122.5 139.5,121.5C 134.074,122.416 132.407,120.416 134.5,115.5 Z"/></g>
<g><path style="opacity:1" fill="#9e9fa0" d="M 182.5,115.5 C 184.792,115.244 186.959,115.577 189,116.5C 189.688,117.332 189.521,117.998 188.5,118.5C 181.831,117.858 181.831,118.524 188.5,120.5C 189.76,122.353 189.76,124.186 188.5,126C 186.231,126.758 184.064,126.591 182,125.5C 181.312,124.668 181.479,124.002 182.5,123.5C 184.071,124.309 185.738,124.643 187.5,124.5C 187.5,123.5 187.5,122.5 187.5,121.5C 182.074,122.416 180.407,120.416 182.5,115.5 Z"/></g>
<g><path style="opacity:1" fill="#9e9fa0" d="M 386.5,115.5 C 388.792,115.244 390.959,115.577 393,116.5C 393.688,117.332 393.521,117.998 392.5,118.5C 385.831,117.858 385.831,118.524 392.5,120.5C 393.76,122.353 393.76,124.186 392.5,126C 390.231,126.758 388.064,126.591 386,125.5C 385.312,124.668 385.479,124.002 386.5,123.5C 388.071,124.309 389.738,124.643 391.5,124.5C 391.5,123.5 391.5,122.5 391.5,121.5C 386.074,122.416 384.407,120.416 386.5,115.5 Z"/></g>
<g><path style="opacity:1" fill="#9d9898" d="M 265.5,115.5 C 267.5,115.5 269.5,115.5 271.5,115.5C 271.5,118.5 271.5,121.5 271.5,124.5C 272.675,124.281 273.675,124.614 274.5,125.5C 271.5,126.833 268.5,126.833 265.5,125.5C 266.325,124.614 267.325,124.281 268.5,124.5C 268.5,122.167 268.5,119.833 268.5,117.5C 266.821,117.715 265.821,117.048 265.5,115.5 Z"/></g>
<g><path style="opacity:1" fill="#9d9898" d="M 289.5,115.5 C 291.5,115.5 293.5,115.5 295.5,115.5C 295.5,118.5 295.5,121.5 295.5,124.5C 296.675,124.281 297.675,124.614 298.5,125.5C 295.5,126.833 292.5,126.833 289.5,125.5C 290.325,124.614 291.325,124.281 292.5,124.5C 292.5,122.167 292.5,119.833 292.5,117.5C 290.821,117.715 289.821,117.048 289.5,115.5 Z"/></g>
<g><path style="opacity:1" fill="#9d9898" d="M 337.5,115.5 C 339.5,115.5 341.5,115.5 343.5,115.5C 343.5,118.5 343.5,121.5 343.5,124.5C 344.675,124.281 345.675,124.614 346.5,125.5C 343.5,126.833 340.5,126.833 337.5,125.5C 338.325,124.614 339.325,124.281 340.5,124.5C 340.5,122.167 340.5,119.833 340.5,117.5C 338.821,117.715 337.821,117.048 337.5,115.5 Z"/></g>
<g><path style="opacity:1" fill="#9aa1a8" d="M 280.5,112.5 C 287.662,112.613 287.995,113.613 281.5,115.5C 288.049,117.093 288.049,118.093 281.5,118.5C 280.833,129.167 280.167,129.167 279.5,118.5C 275.5,117.833 275.5,117.167 279.5,116.5C 279.433,115.041 279.766,113.708 280.5,112.5 Z"/></g>
<g><path style="opacity:1" fill="#a69d95" d="M 109.5,112.5 C 117.446,111.254 119.779,114.088 116.5,121C 117.029,122.559 117.696,124.059 118.5,125.5C 117.132,126.594 115.965,126.26 115,124.5C 114.51,123.207 114.343,121.873 114.5,120.5C 113.5,120.5 112.5,120.5 111.5,120.5C 111.799,122.604 111.466,124.604 110.5,126.5C 109.507,121.88 109.173,117.214 109.5,112.5 Z"/></g>
<g><path style="opacity:1" fill="#242834" d="M 111.5,114.5 C 113.167,114.5 114.833,114.5 116.5,114.5C 116.5,115.833 116.5,117.167 116.5,118.5C 114.833,118.5 113.167,118.5 111.5,118.5C 111.5,117.167 111.5,115.833 111.5,114.5 Z"/></g>
<g><path style="opacity:1" fill="#99a1a6" d="M 159.5,115.5 C 161.467,115.261 163.301,115.594 165,116.5C 165.824,119.882 165.657,123.216 164.5,126.5C 163.516,123.572 163.183,120.572 163.5,117.5C 162.5,117.5 161.5,117.5 160.5,117.5C 160.167,116.833 159.833,116.167 159.5,115.5 Z"/></g>
<g><path style="opacity:1" fill="#ada291" d="M 207.5,128.5 C 208.746,125.707 208.413,123.04 206.5,120.5C 205.566,118.761 205.566,117.095 206.5,115.5C 207.937,118.041 209.103,120.708 210,123.5C 210.803,120.756 211.803,118.089 213,115.5C 212.823,120.866 211.323,125.866 208.5,130.5C 207.702,130.043 207.369,129.376 207.5,128.5 Z"/></g>
<g><path style="opacity:1" fill="#99a1a6" d="M 363.5,115.5 C 365.467,115.261 367.301,115.594 369,116.5C 369.824,119.882 369.657,123.216 368.5,126.5C 367.516,123.572 367.183,120.572 367.5,117.5C 366.5,117.5 365.5,117.5 364.5,117.5C 364.167,116.833 363.833,116.167 363.5,115.5 Z"/></g>
<g><path style="opacity:1" fill="#b19a80" d="M 159.5,115.5 C 159.833,116.167 160.167,116.833 160.5,117.5C 159.834,120.358 159.167,123.358 158.5,126.5C 158.167,124.667 157.833,122.833 157.5,121C 157.547,118.705 158.213,116.871 159.5,115.5 Z"/></g>
<g><path style="opacity:1" fill="#b19a80" d="M 363.5,115.5 C 363.833,116.167 364.167,116.833 364.5,117.5C 363.834,120.358 363.167,123.358 362.5,126.5C 362.167,124.667 361.833,122.833 361.5,121C 361.547,118.705 362.213,116.871 363.5,115.5 Z"/></g>
<g><path style="opacity:1" fill="#a7a8aa" d="M 123.5,115.5 C 128.168,114.839 130.168,116.839 129.5,121.5C 127.5,121.5 125.5,121.5 123.5,121.5C 123.5,122.5 123.5,123.5 123.5,124.5C 125.674,124.08 127.674,124.08 129.5,124.5C 127.085,127.128 124.585,127.128 122,124.5C 121.094,121.156 121.594,118.156 123.5,115.5 Z"/></g>
<g><path style="opacity:1" fill="#28272b" d="M 123.5,117.5 C 124.833,117.5 126.167,117.5 127.5,117.5C 127.5,118.5 127.5,119.5 127.5,120.5C 126.167,120.5 124.833,120.5 123.5,120.5C 123.5,119.5 123.5,118.5 123.5,117.5 Z"/></g>
<g><path style="opacity:1" fill="#a7a8aa" d="M 147.5,115.5 C 152.168,114.839 154.168,116.839 153.5,121.5C 151.5,121.5 149.5,121.5 147.5,121.5C 147.5,122.5 147.5,123.5 147.5,124.5C 149.674,124.08 151.674,124.08 153.5,124.5C 151.085,127.128 148.585,127.128 146,124.5C 145.094,121.156 145.594,118.156 147.5,115.5 Z"/></g>
<g><path style="opacity:1" fill="#28272b" d="M 147.5,117.5 C 148.833,117.5 150.167,117.5 151.5,117.5C 151.5,118.5 151.5,119.5 151.5,120.5C 150.167,120.5 148.833,120.5 147.5,120.5C 147.5,119.5 147.5,118.5 147.5,117.5 Z"/></g>
<g><path style="opacity:1" fill="#a7a8aa" d="M 375.5,115.5 C 380.168,114.839 382.168,116.839 381.5,121.5C 379.5,121.5 377.5,121.5 375.5,121.5C 375.5,122.5 375.5,123.5 375.5,124.5C 377.674,124.08 379.674,124.08 381.5,124.5C 379.085,127.128 376.585,127.128 374,124.5C 373.094,121.156 373.594,118.156 375.5,115.5 Z"/></g>
<g><path style="opacity:1" fill="#28272b" d="M 375.5,117.5 C 376.833,117.5 378.167,117.5 379.5,117.5C 379.5,118.5 379.5,119.5 379.5,120.5C 378.167,120.5 376.833,120.5 375.5,120.5C 375.5,119.5 375.5,118.5 375.5,117.5 Z"/></g>
<g><path style="opacity:1" fill="#9aa2ab" d="M 170.5,115.5 C 172.591,115.318 174.591,115.652 176.5,116.5C 177.833,119.833 177.833,123.167 176.5,126.5C 174.264,126.583 171.93,126.25 169.5,125.5C 168.167,123.833 168.167,122.167 169.5,120.5C 171.535,119.959 173.535,119.292 175.5,118.5C 173.865,117.319 172.198,117.319 170.5,118.5C 169.438,117.575 169.438,116.575 170.5,115.5 Z"/></g>
<g><path style="opacity:1" fill="#372f31" d="M 171.5,120.5 C 172.833,120.5 174.167,120.5 175.5,120.5C 175.5,121.833 175.5,123.167 175.5,124.5C 173.833,124.5 172.167,124.5 170.5,124.5C 170.433,123.041 170.766,121.708 171.5,120.5 Z"/></g>
<g><path style="opacity:1" fill="#9aa2ab" d="M 242.5,115.5 C 244.591,115.318 246.591,115.652 248.5,116.5C 249.833,119.833 249.833,123.167 248.5,126.5C 246.264,126.583 243.93,126.25 241.5,125.5C 240.167,123.833 240.167,122.167 241.5,120.5C 243.535,119.959 245.535,119.292 247.5,118.5C 245.865,117.319 244.198,117.319 242.5,118.5C 241.438,117.575 241.438,116.575 242.5,115.5 Z"/></g>
<g><path style="opacity:1" fill="#372f31" d="M 243.5,120.5 C 244.833,120.5 246.167,120.5 247.5,120.5C 247.5,121.833 247.5,123.167 247.5,124.5C 245.833,124.5 244.167,124.5 242.5,124.5C 242.433,123.041 242.766,121.708 243.5,120.5 Z"/></g>
<g><path style="opacity:1" fill="#9aa2ab" d="M 314.5,115.5 C 316.591,115.318 318.591,115.652 320.5,116.5C 321.833,119.833 321.833,123.167 320.5,126.5C 318.264,126.583 315.93,126.25 313.5,125.5C 312.167,123.833 312.167,122.167 313.5,120.5C 315.535,119.959 317.535,119.292 319.5,118.5C 317.865,117.319 316.198,117.319 314.5,118.5C 313.438,117.575 313.438,116.575 314.5,115.5 Z"/></g>
<g><path style="opacity:1" fill="#372f31" d="M 315.5,120.5 C 316.833,120.5 318.167,120.5 319.5,120.5C 319.5,121.833 319.5,123.167 319.5,124.5C 317.833,124.5 316.167,124.5 314.5,124.5C 314.433,123.041 314.766,121.708 315.5,120.5 Z"/></g>
<g><path style="opacity:1" fill="#a6adad" d="M 77.5,112.5 C 78.2389,112.369 78.9056,112.536 79.5,113C 77.7313,115.7 76.398,118.534 75.5,121.5C 76.8333,121.5 78.1667,121.5 79.5,121.5C 79.281,120.325 79.6143,119.325 80.5,118.5C 81.8333,121.167 81.8333,123.833 80.5,126.5C 79.6143,125.675 79.281,124.675 79.5,123.5C 77.1667,123.5 74.8333,123.5 72.5,123.5C 72.3433,122.127 72.51,120.793 73,119.5C 75.0202,117.449 76.5202,115.116 77.5,112.5 Z"/></g>
<g><path style="opacity:1" fill="#98969b" d="M 87.5,123.5 C 88.8333,123.5 90.1667,123.5 91.5,123.5C 91.5,124.5 91.5,125.5 91.5,126.5C 90.1667,126.5 88.8333,126.5 87.5,126.5C 87.5,125.5 87.5,124.5 87.5,123.5 Z"/></g>
<g><path style="opacity:1" fill="#a4a19f" d="M 231.5,112.5 C 234.056,112.132 236.056,112.966 237.5,115C 237.167,115.5 236.833,116 236.5,116.5C 235.158,114.995 233.492,114.328 231.5,114.5C 231.5,117.833 231.5,121.167 231.5,124.5C 233.492,124.672 235.158,124.005 236.5,122.5C 237.998,125.133 237.165,126.466 234,126.5C 230.055,125.67 228.555,123.17 229.5,119C 229.658,116.551 230.325,114.384 231.5,112.5 Z"/></g>
<g><path style="opacity:1" fill="#a39f9b" d="M 303.5,115.5 C 305.199,115.34 306.866,115.506 308.5,116C 309.517,117.049 309.684,118.216 309,119.5C 307.556,117.845 305.722,117.178 303.5,117.5C 303.5,119.833 303.5,122.167 303.5,124.5C 305.492,124.672 307.158,124.005 308.5,122.5C 309.998,125.133 309.165,126.466 306,126.5C 302.447,126.107 300.947,124.107 301.5,120.5C 301.724,118.545 302.391,116.879 303.5,115.5 Z"/></g>
<g><path style="opacity:1" fill="#a39f9b" d="M 327.5,115.5 C 329.199,115.34 330.866,115.506 332.5,116C 333.517,117.049 333.684,118.216 333,119.5C 331.556,117.845 329.722,117.178 327.5,117.5C 327.5,119.833 327.5,122.167 327.5,124.5C 329.492,124.672 331.158,124.005 332.5,122.5C 333.998,125.133 333.165,126.466 330,126.5C 326.447,126.107 324.947,124.107 325.5,120.5C 325.724,118.545 326.391,116.879 327.5,115.5 Z"/></g>
<g><path style="opacity:1" fill="#a2a1a2" d="M 350.5,115.5 C 352.591,115.318 354.591,115.652 356.5,116.5C 357.833,119.5 357.833,122.5 356.5,125.5C 354.031,127.007 351.865,126.673 350,124.5C 349.264,121.408 349.431,118.408 350.5,115.5 Z"/></g>
<g><path style="opacity:1" fill="#212025" d="M 351.5,117.5 C 352.833,117.5 354.167,117.5 355.5,117.5C 355.5,119.833 355.5,122.167 355.5,124.5C 354.167,124.5 352.833,124.5 351.5,124.5C 351.5,122.167 351.5,119.833 351.5,117.5 Z"/></g>
<g><path style="opacity:1" fill="#2b4371" d="M 206.5,120.5 C 208.413,123.04 208.746,125.707 207.5,128.5C 207.167,125.833 206.833,123.167 206.5,120.5 Z"/></g>
<g><path style="opacity:1" fill="#a4a19d" d="M 208.5,138.5 C 209.675,138.281 210.675,138.614 211.5,139.5C 209.948,140.798 208.948,140.465 208.5,138.5 Z"/></g>
<g><path style="opacity:1" fill="#868988" d="M 174.5,137.5 C 175.376,137.369 176.043,137.702 176.5,138.5C 173.74,142.564 173.074,142.231 174.5,137.5 Z"/></g>
<g><path style="opacity:1" fill="#7f7572" d="M 117.5,139.5 C 118.043,139.56 118.376,139.893 118.5,140.5C 116.257,141.474 113.924,141.808 111.5,141.5C 113.5,140.833 115.5,140.167 117.5,139.5 Z"/></g>
<g><path style="opacity:1" fill="#9e9fa0" d="M 122.5,142.5 C 124.792,142.244 126.959,142.577 129,143.5C 129.688,144.332 129.521,144.998 128.5,145.5C 121.831,144.858 121.831,145.524 128.5,147.5C 129.76,149.353 129.76,151.186 128.5,153C 126.231,153.758 124.064,153.591 122,152.5C 121.312,151.668 121.479,151.002 122.5,150.5C 124.071,151.309 125.738,151.643 127.5,151.5C 127.5,150.5 127.5,149.5 127.5,148.5C 122.074,149.416 120.407,147.416 122.5,142.5 Z"/></g>
<g><path style="opacity:1" fill="#a0a3a0" d="M 135.5,139.5 C 137.048,139.821 137.715,140.821 137.5,142.5C 144.167,143.167 144.167,143.833 137.5,144.5C 137.5,146.833 137.5,149.167 137.5,151.5C 138.978,151.238 140.311,151.571 141.5,152.5C 139.647,153.76 137.814,153.76 136,152.5C 135.503,149.854 135.336,147.187 135.5,144.5C 131.5,143.833 131.5,143.167 135.5,142.5C 135.5,141.5 135.5,140.5 135.5,139.5 Z"/></g>
<g><path style="opacity:1" fill="#9e9fa0" d="M 182.5,142.5 C 184.792,142.244 186.959,142.577 189,143.5C 189.688,144.332 189.521,144.998 188.5,145.5C 181.831,144.858 181.831,145.524 188.5,147.5C 189.76,149.353 189.76,151.186 188.5,153C 186.231,153.758 184.064,153.591 182,152.5C 181.312,151.668 181.479,151.002 182.5,150.5C 184.071,151.309 185.738,151.643 187.5,151.5C 187.5,150.5 187.5,149.5 187.5,148.5C 182.074,149.416 180.407,147.416 182.5,142.5 Z"/></g>
<g><path style="opacity:1" fill="#a0a3a0" d="M 195.5,139.5 C 197.048,139.821 197.715,140.821 197.5,142.5C 204.167,143.167 204.167,143.833 197.5,144.5C 197.5,146.833 197.5,149.167 197.5,151.5C 198.978,151.238 200.311,151.571 201.5,152.5C 199.647,153.76 197.814,153.76 196,152.5C 195.503,149.854 195.336,147.187 195.5,144.5C 191.5,143.833 191.5,143.167 195.5,142.5C 195.5,141.5 195.5,140.5 195.5,139.5 Z"/></g>
<g><path style="opacity:1" fill="#9e9fa0" d="M 242.5,142.5 C 244.792,142.244 246.959,142.577 249,143.5C 249.688,144.332 249.521,144.998 248.5,145.5C 241.831,144.858 241.831,145.524 248.5,147.5C 249.76,149.353 249.76,151.186 248.5,153C 246.231,153.758 244.064,153.591 242,152.5C 241.312,151.668 241.479,151.002 242.5,150.5C 244.071,151.309 245.738,151.643 247.5,151.5C 247.5,150.5 247.5,149.5 247.5,148.5C 242.074,149.416 240.407,147.416 242.5,142.5 Z"/></g>
<g><path style="opacity:1" fill="#9d9898" d="M 169.5,142.5 C 171.5,142.5 173.5,142.5 175.5,142.5C 175.5,145.5 175.5,148.5 175.5,151.5C 176.675,151.281 177.675,151.614 178.5,152.5C 175.5,153.833 172.5,153.833 169.5,152.5C 170.325,151.614 171.325,151.281 172.5,151.5C 172.5,149.167 172.5,146.833 172.5,144.5C 170.821,144.715 169.821,144.048 169.5,142.5 Z"/></g>
<g><path style="opacity:1" fill="#9d9898" d="M 205.5,142.5 C 207.5,142.5 209.5,142.5 211.5,142.5C 211.5,145.5 211.5,148.5 211.5,151.5C 212.675,151.281 213.675,151.614 214.5,152.5C 211.5,153.833 208.5,153.833 205.5,152.5C 206.325,151.614 207.325,151.281 208.5,151.5C 208.5,149.167 208.5,146.833 208.5,144.5C 206.821,144.715 205.821,144.048 205.5,142.5 Z"/></g>
<g><path style="opacity:1" fill="#a2a6a7" d="M 73.5,139.5 C 76.2469,139.187 78.9135,139.52 81.5,140.5C 79.604,141.466 77.604,141.799 75.5,141.5C 75.5,142.5 75.5,143.5 75.5,144.5C 79.2109,143.846 81.2109,145.346 81.5,149C 80.5948,153.329 78.0948,154.496 74,152.5C 73.2506,151.365 73.4173,150.365 74.5,149.5C 75.8415,151.005 77.5082,151.672 79.5,151.5C 79.5,149.833 79.5,148.167 79.5,146.5C 77.5,146.5 75.5,146.5 73.5,146.5C 73.5,144.167 73.5,141.833 73.5,139.5 Z"/></g>
<g><path style="opacity:1" fill="#9ea3a5" d="M 163.5,139.5 C 164.805,141.397 165.471,143.731 165.5,146.5C 165.167,148.833 164.833,151.167 164.5,153.5C 162.657,153.245 160.657,153.078 158.5,153C 157.383,149.927 157.216,146.76 158,143.5C 159.667,142.167 161.333,142.167 163,143.5C 163.49,142.207 163.657,140.873 163.5,139.5 Z"/></g>
<g><path style="opacity:1" fill="#212025" d="M 159.5,144.5 C 160.833,144.5 162.167,144.5 163.5,144.5C 163.5,146.833 163.5,149.167 163.5,151.5C 162.167,151.5 160.833,151.5 159.5,151.5C 159.5,149.167 159.5,146.833 159.5,144.5 Z"/></g>
<g><path style="opacity:1" fill="#9aa2ab" d="M 146.5,142.5 C 148.591,142.318 150.591,142.652 152.5,143.5C 153.833,146.833 153.833,150.167 152.5,153.5C 150.264,153.583 147.93,153.25 145.5,152.5C 144.167,150.833 144.167,149.167 145.5,147.5C 147.535,146.959 149.535,146.292 151.5,145.5C 149.865,144.319 148.198,144.319 146.5,145.5C 145.438,144.575 145.438,143.575 146.5,142.5 Z"/></g>
<g><path style="opacity:1" fill="#372f31" d="M 147.5,147.5 C 148.833,147.5 150.167,147.5 151.5,147.5C 151.5,148.833 151.5,150.167 151.5,151.5C 149.833,151.5 148.167,151.5 146.5,151.5C 146.433,150.041 146.766,148.708 147.5,147.5 Z"/></g>
<g><path style="opacity:1" fill="#9aa2ab" d="M 230.5,142.5 C 232.591,142.318 234.591,142.652 236.5,143.5C 237.833,146.833 237.833,150.167 236.5,153.5C 234.264,153.583 231.93,153.25 229.5,152.5C 228.167,150.833 228.167,149.167 229.5,147.5C 231.535,146.959 233.535,146.292 235.5,145.5C 233.865,144.319 232.198,144.319 230.5,145.5C 229.438,144.575 229.438,143.575 230.5,142.5 Z"/></g>
<g><path style="opacity:1" fill="#372f31" d="M 231.5,147.5 C 232.833,147.5 234.167,147.5 235.5,147.5C 235.5,148.833 235.5,150.167 235.5,151.5C 233.833,151.5 232.167,151.5 230.5,151.5C 230.433,150.041 230.766,148.708 231.5,147.5 Z"/></g>
<g><path style="opacity:1" fill="#98969b" d="M 87.5,150.5 C 88.8333,150.5 90.1667,150.5 91.5,150.5C 91.5,151.5 91.5,152.5 91.5,153.5C 90.1667,153.5 88.8333,153.5 87.5,153.5C 87.5,152.5 87.5,151.5 87.5,150.5 Z"/></g>
<g><path style="opacity:1" fill="#aaa9a7" d="M 117.5,139.5 C 115.5,140.167 113.5,140.833 111.5,141.5C 111.5,142.833 111.5,144.167 111.5,145.5C 119.5,146.167 119.5,146.833 111.5,147.5C 111.5,148.833 111.5,150.167 111.5,151.5C 113.924,151.192 116.257,151.526 118.5,152.5C 115.572,153.484 112.572,153.817 109.5,153.5C 109.5,148.833 109.5,144.167 109.5,139.5C 112.167,139.5 114.833,139.5 117.5,139.5 Z"/></g>
<g><path style="opacity:1" fill="#a39f9b" d="M 219.5,142.5 C 221.199,142.34 222.866,142.506 224.5,143C 225.517,144.049 225.684,145.216 225,146.5C 223.556,144.845 221.722,144.178 219.5,144.5C 219.5,146.833 219.5,149.167 219.5,151.5C 221.492,151.672 223.158,151.005 224.5,149.5C 225.998,152.133 225.165,153.466 222,153.5C 218.447,153.107 216.947,151.107 217.5,147.5C 217.724,145.545 218.391,143.879 219.5,142.5 Z"/></g>
<g><path style="opacity:1" fill="#a4a19d" d="M 148.5,165.5 C 149.675,165.281 150.675,165.614 151.5,166.5C 149.948,167.798 148.948,167.465 148.5,165.5 Z"/></g>
<g><path style="opacity:1" fill="#969fa8" d="M 131.5,166.5 C 133.5,166.5 135.5,166.5 137.5,166.5C 137.5,170.5 137.5,174.5 137.5,178.5C 139.288,178.215 140.955,178.548 142.5,179.5C 140.516,180.706 138.516,180.706 136.5,179.5C 135.511,175.893 135.177,172.226 135.5,168.5C 133.517,168.843 132.183,168.176 131.5,166.5 Z"/></g>
<g><path style="opacity:1" fill="#9d9898" d="M 145.5,169.5 C 147.5,169.5 149.5,169.5 151.5,169.5C 151.5,172.5 151.5,175.5 151.5,178.5C 152.675,178.281 153.675,178.614 154.5,179.5C 151.5,180.833 148.5,180.833 145.5,179.5C 146.325,178.614 147.325,178.281 148.5,178.5C 148.5,176.167 148.5,173.833 148.5,171.5C 146.821,171.715 145.821,171.048 145.5,169.5 Z"/></g>
<g><path style="opacity:1" fill="#989ca1" d="M 76.5,166.5 C 77.552,166.351 78.552,166.517 79.5,167C 78.7069,168.085 78.0402,169.252 77.5,170.5C 82.1894,171.828 83.5227,174.661 81.5,179C 77.025,181.722 74.025,180.722 72.5,176C 73.622,172.722 74.9554,169.556 76.5,166.5 Z"/></g>
<g><path style="opacity:1" fill="#9a9e9d" d="M 157.5,169.5 C 159.681,169.914 162.015,170.081 164.5,170C 166.421,171.241 166.754,172.741 165.5,174.5C 164.614,173.675 164.281,172.675 164.5,171.5C 162.833,171.5 161.167,171.5 159.5,171.5C 159.817,174.572 159.484,177.572 158.5,180.5C 157.511,176.893 157.177,173.226 157.5,169.5 Z"/></g>
<g><path style="opacity:1" fill="#9e9fa0" d="M 110.5,166.5 C 113.38,166.033 115.713,166.866 117.5,169C 117.333,169.5 117.167,170 117,170.5C 115.556,168.845 113.722,168.178 111.5,168.5C 111.5,169.833 111.5,171.167 111.5,172.5C 118.068,172.192 119.734,174.692 116.5,180C 114.231,180.758 112.064,180.591 110,179.5C 109.251,178.365 109.417,177.365 110.5,176.5C 112.6,179.129 114.6,179.129 116.5,176.5C 114.573,174.898 112.406,173.565 110,172.5C 109.322,170.402 109.489,168.402 110.5,166.5 Z"/></g>
<g><path style="opacity:1" fill="#312a30" d="M 76.5,172.5 C 79.9656,173.109 80.9656,174.942 79.5,178C 76.7629,179.08 75.0963,178.246 74.5,175.5C 74.9424,174.261 75.6091,173.261 76.5,172.5 Z"/></g>
<g><path style="opacity:1" fill="#9aa2ab" d="M 122.5,169.5 C 124.591,169.318 126.591,169.652 128.5,170.5C 129.833,173.833 129.833,177.167 128.5,180.5C 126.264,180.583 123.93,180.25 121.5,179.5C 120.167,177.833 120.167,176.167 121.5,174.5C 123.535,173.959 125.535,173.292 127.5,172.5C 125.865,171.319 124.198,171.319 122.5,172.5C 121.438,171.575 121.438,170.575 122.5,169.5 Z"/></g>
<g><path style="opacity:1" fill="#372f31" d="M 123.5,174.5 C 124.833,174.5 126.167,174.5 127.5,174.5C 127.5,175.833 127.5,177.167 127.5,178.5C 125.833,178.5 124.167,178.5 122.5,178.5C 122.433,177.041 122.766,175.708 123.5,174.5 Z"/></g>
<g><path style="opacity:1" fill="#98969b" d="M 87.5,177.5 C 88.8333,177.5 90.1667,177.5 91.5,177.5C 91.5,178.5 91.5,179.5 91.5,180.5C 90.1667,180.5 88.8333,180.5 87.5,180.5C 87.5,179.5 87.5,178.5 87.5,177.5 Z"/></g>
<g><path style="opacity:1" fill="#a2a6a9" d="M 73.5,196.5 C 84.0166,199.972 84.0166,202.639 73.5,204.5C 75.6549,203.59 77.6549,202.423 79.5,201C 76.8233,200.186 74.8233,198.686 73.5,196.5 Z"/></g>
<g><path style="opacity:1" fill="#a2a6a9" d="M 85.5,196.5 C 96.0166,199.972 96.0166,202.639 85.5,204.5C 87.6549,203.59 89.6549,202.423 91.5,201C 88.8233,200.186 86.8233,198.686 85.5,196.5 Z"/></g>
</svg>
